<svg width="750" height="82" viewBox="0 0 750 82" fill="none" xmlns="http://www.w3.org/2000/svg">
<path d="M86.8446 78.762V5.25079H116.678C124.392 5.25079 130.267 7.03606 134.301 10.6066C138.406 14.1071 140.459 18.6228 140.459 24.1537C140.459 28.7744 139.185 32.4849 136.637 35.2854C134.16 38.0158 131.116 39.8711 127.507 40.8512C131.753 41.6913 135.257 43.7917 138.017 47.1522C140.777 50.4427 142.158 54.2933 142.158 58.7039C142.158 64.5148 140.034 69.3105 135.788 73.0911C131.541 76.8717 125.525 78.762 117.739 78.762H86.8446ZM100.434 36.1255H114.66C118.482 36.1255 121.42 35.2504 123.472 33.5001C125.525 31.7498 126.551 29.2644 126.551 26.044C126.551 22.9635 125.525 20.5481 123.472 18.7979C121.49 16.9776 118.482 16.0674 114.448 16.0674H100.434V36.1255ZM100.434 67.8403H115.616C119.65 67.8403 122.764 66.9302 124.959 65.1099C127.223 63.2196 128.356 60.5942 128.356 57.2337C128.356 53.8032 127.188 51.1078 124.852 49.1475C122.517 47.1872 119.367 46.207 115.403 46.207H100.434V67.8403Z" fill="#304E47"/>
<path d="M179.567 80.0222C174.47 80.0222 169.87 78.867 165.765 76.5566C161.73 74.2463 158.51 71.0608 156.104 67.0002C153.768 62.8696 152.6 58.1088 152.6 52.718C152.6 47.3272 153.803 42.6015 156.21 38.5409C158.616 34.4102 161.837 31.1897 165.871 28.8794C169.976 26.569 174.577 25.4139 179.673 25.4139C184.698 25.4139 189.228 26.569 193.262 28.8794C197.367 31.1897 200.588 34.4102 202.923 38.5409C205.33 42.6015 206.533 47.3272 206.533 52.718C206.533 58.1088 205.33 62.8696 202.923 67.0002C200.588 71.0608 197.367 74.2463 193.262 76.5566C189.157 78.867 184.592 80.0222 179.567 80.0222ZM179.567 68.3654C183.105 68.3654 186.184 67.0702 188.803 64.4798C191.422 61.8194 192.731 57.8988 192.731 52.718C192.731 47.5372 191.422 43.6516 188.803 41.0612C186.184 38.4008 183.141 37.0706 179.673 37.0706C176.063 37.0706 172.949 38.4008 170.33 41.0612C167.782 43.6516 166.508 47.5372 166.508 52.718C166.508 57.8988 167.782 61.8194 170.33 64.4798C172.949 67.0702 176.028 68.3654 179.567 68.3654Z" fill="#304E47"/>
<path d="M244.747 80.0222C239.651 80.0222 235.051 78.867 230.946 76.5566C226.911 74.2463 223.691 71.0608 221.284 67.0002C218.949 62.8696 217.781 58.1088 217.781 52.718C217.781 47.3272 218.984 42.6015 221.39 38.5409C223.797 34.4102 227.017 31.1897 231.052 28.8794C235.157 26.569 239.757 25.4139 244.853 25.4139C249.879 25.4139 254.408 26.569 258.443 28.8794C262.548 31.1897 265.768 34.4102 268.104 38.5409C270.51 42.6015 271.714 47.3272 271.714 52.718C271.714 58.1088 270.51 62.8696 268.104 67.0002C265.768 71.0608 262.548 74.2463 258.443 76.5566C254.338 78.867 249.772 80.0222 244.747 80.0222ZM244.747 68.3654C248.286 68.3654 251.365 67.0702 253.984 64.4798C256.603 61.8194 257.912 57.8988 257.912 52.718C257.912 47.5372 256.603 43.6516 253.984 41.0612C251.365 38.4008 248.322 37.0706 244.853 37.0706C241.244 37.0706 238.129 38.4008 235.511 41.0612C232.963 43.6516 231.689 47.5372 231.689 52.718C231.689 57.8988 232.963 61.8194 235.511 64.4798C238.129 67.0702 241.208 68.3654 244.747 68.3654Z" fill="#304E47"/>
<path d="M284.66 78.762V3.15048H298.25V47.7823L316.935 26.6741H333.072L311.52 50.4077L336.576 78.762H319.589L298.25 52.613V78.762H284.66Z" fill="#304E47"/>
<path d="M363.421 78.762V16.0674H341.763V5.25079H398.775V16.0674H377.011V78.762H363.421Z" fill="#304E47"/>
<path d="M404.135 78.762V26.6741H416.238L417.512 36.4405C419.423 33.08 422.007 30.4196 425.263 28.4593C428.589 26.429 432.482 25.4139 436.941 25.4139V39.591H433.119C430.146 39.591 427.492 40.0461 425.156 40.9562C422.821 41.8664 420.981 43.4416 419.636 45.6819C418.362 47.9223 417.725 51.0378 417.725 55.0284V78.762H404.135Z" fill="#304E47"/>
<path d="M465.18 80.0222C460.65 80.0222 456.934 79.3221 454.032 77.9218C451.13 76.4516 448.972 74.5263 447.556 72.146C446.14 69.7656 445.433 67.1402 445.433 64.2698C445.433 59.439 447.344 55.5184 451.166 52.508C454.988 49.4975 460.721 47.9923 468.365 47.9923H481.742V46.7321C481.742 43.1616 480.716 40.5362 478.663 38.8559C476.61 37.1757 474.062 36.3355 471.019 36.3355C468.259 36.3355 465.852 37.0006 463.8 38.3308C461.747 39.591 460.473 41.4813 459.978 44.0017H446.707C447.061 40.2211 448.335 36.9306 450.529 34.1302C452.794 31.3298 455.695 29.1944 459.234 27.7242C462.773 26.184 466.737 25.4139 471.125 25.4139C478.628 25.4139 484.538 27.2691 488.855 30.9797C493.172 34.6903 495.331 39.9411 495.331 46.7321V78.762H483.759L482.485 70.3607C480.928 73.1611 478.734 75.4715 475.903 77.2918C473.142 79.112 469.568 80.0222 465.18 80.0222ZM468.259 69.5206C472.151 69.5206 475.159 68.2604 477.283 65.74C479.477 63.2196 480.857 60.1041 481.423 56.3936H469.851C466.241 56.3936 463.658 57.0587 462.101 58.3889C460.544 59.6491 459.765 61.2243 459.765 63.1146C459.765 65.1449 460.544 66.7201 462.101 67.8403C463.658 68.9605 465.711 69.5206 468.259 69.5206Z" fill="#304E47"/>
<path d="M534.894 80.0222C529.515 80.0222 524.773 78.867 520.668 76.5566C516.563 74.2463 513.307 71.0258 510.9 66.8952C508.565 62.7645 507.397 58.0388 507.397 52.718C507.397 47.3972 508.565 42.6715 510.9 38.5409C513.307 34.4102 516.563 31.1897 520.668 28.8794C524.773 26.569 529.515 25.4139 534.894 25.4139C541.618 25.4139 547.28 27.1641 551.881 30.6647C556.481 34.0952 559.419 38.8559 560.693 44.9468H546.36C545.652 42.4264 544.237 40.4662 542.113 39.0659C540.061 37.5957 537.619 36.8606 534.788 36.8606C531.037 36.8606 527.852 38.2608 525.233 41.0612C522.614 43.8617 521.305 47.7473 521.305 52.718C521.305 57.6888 522.614 61.5744 525.233 64.3748C527.852 67.1752 531.037 68.5754 534.788 68.5754C537.619 68.5754 540.061 67.8753 542.113 66.4751C544.237 65.0749 545.652 63.0796 546.36 60.4892H560.693C559.419 66.3701 556.481 71.0958 551.881 74.6664C547.28 78.2369 541.618 80.0222 534.894 80.0222Z" fill="#304E47"/>
<path d="M573.55 78.762V3.15048H587.14V47.7823L605.825 26.6741H621.963L600.411 50.4077L625.466 78.762H608.479L587.14 52.613V78.762H573.55Z" fill="#304E47"/>
<path d="M655.919 80.0222C650.611 80.0222 645.904 78.902 641.799 76.6617C637.694 74.4213 634.474 71.2708 632.138 67.2102C629.802 63.1496 628.635 58.4589 628.635 53.1381C628.635 47.7473 629.767 42.9515 632.032 38.7509C634.368 34.5503 637.553 31.2948 641.587 28.9844C645.692 26.604 650.505 25.4139 656.026 25.4139C661.192 25.4139 665.758 26.534 669.721 28.7744C673.685 31.0147 676.764 34.0952 678.958 38.0158C681.223 41.8664 682.355 46.172 682.355 50.9327C682.355 51.7029 682.32 52.508 682.249 53.3481C682.249 54.1882 682.214 55.0634 682.143 55.9735H642.118C642.401 60.0341 643.816 63.2196 646.364 65.53C648.983 67.8403 652.133 68.9955 655.813 68.9955C658.574 68.9955 660.874 68.4004 662.714 67.2102C664.625 65.95 666.041 64.3398 666.961 62.3795H680.763C679.772 65.67 678.108 68.6804 675.773 71.4109C673.508 74.0713 670.677 76.1716 667.279 77.7118C663.953 79.252 660.166 80.0222 655.919 80.0222ZM656.026 36.3355C652.699 36.3355 649.762 37.2807 647.214 39.171C644.666 40.9912 643.038 43.7917 642.33 47.5722H668.553C668.341 44.1417 667.067 41.4113 664.731 39.381C662.396 37.3507 659.494 36.3355 656.026 36.3355Z" fill="#304E47"/>
<path d="M718.787 80.0222C713.832 80.0222 709.409 78.832 705.516 76.4516C701.623 74.0713 698.544 70.8158 696.279 66.6851C694.015 62.5545 692.882 57.8638 692.882 52.613C692.882 47.3622 694.015 42.7065 696.279 38.6459C698.544 34.5152 701.623 31.2948 705.516 28.9844C709.409 26.604 713.832 25.4139 718.787 25.4139C722.75 25.4139 726.219 26.149 729.191 27.6192C732.164 29.0894 734.57 31.1547 736.411 33.8151V3.15048H750V78.762H737.897L736.411 71.3058C734.712 73.6162 732.447 75.6465 729.616 77.3968C726.856 79.147 723.246 80.0222 718.787 80.0222ZM721.653 68.2604C726.042 68.2604 729.616 66.8252 732.376 63.9547C735.207 61.0143 736.623 57.2687 736.623 52.718C736.623 48.1673 735.207 44.4568 732.376 41.5863C729.616 38.6459 726.042 37.1756 721.653 37.1756C717.336 37.1756 713.762 38.6109 710.931 41.4813C708.099 44.3517 706.684 48.0623 706.684 52.613C706.684 57.1637 708.099 60.9093 710.931 63.8497C713.762 66.7902 717.336 68.2604 721.653 68.2604Z" fill="#304E47"/>
<path d="M0 9.76648C0 4.3726 4.42053 0 9.87353 0H52.6588C58.1118 0 62.5324 4.3726 62.5324 9.76648C62.5324 15.1604 58.1118 19.533 52.6588 19.533H9.87353C4.42053 19.533 0 15.1604 0 9.76648Z" fill="#AFC4BF"/>
<path d="M0 40.6937C0 34.4008 5.15728 29.2995 11.5191 29.2995H51.0132C57.3751 29.2995 62.5324 34.4008 62.5324 40.6937C62.5324 46.9866 57.3751 52.0879 51.0132 52.0879H11.5191C5.15728 52.0879 0 46.9866 0 40.6937Z" fill="#AFC4BF"/>
<path d="M0 71.6209C0 66.227 4.42053 61.8544 9.87353 61.8544H52.6588C58.1118 61.8544 62.5324 66.227 62.5324 71.6209C62.5324 77.0148 58.1118 81.3874 52.6588 81.3874H9.87353C4.42053 81.3874 0 77.0148 0 71.6209Z" fill="#AFC4BF"/>
</svg>
