<svg width="61" height="24" viewBox="0 0 61 24" fill="none" xmlns="http://www.w3.org/2000/svg">
<path d="M21.4062 23V1.18182H30.8665C32.5284 1.18182 33.924 1.40554 35.0533 1.85298C36.1896 2.30043 37.0455 2.93253 37.6207 3.74929C38.2031 4.56605 38.4943 5.52841 38.4943 6.63636C38.4943 7.43892 38.3168 8.17045 37.9616 8.83097C37.6136 9.49148 37.1236 10.0455 36.4915 10.4929C35.8594 10.9332 35.1207 11.2386 34.2756 11.4091V11.6222C35.2131 11.6577 36.0653 11.8956 36.8324 12.3359C37.5994 12.7692 38.2102 13.3693 38.6648 14.1364C39.1193 14.8963 39.3466 15.7912 39.3466 16.821C39.3466 18.0142 39.0341 19.076 38.4091 20.0064C37.7912 20.9368 36.9105 21.6683 35.767 22.201C34.6236 22.7337 33.2599 23 31.6761 23H21.4062ZM27.3295 18.2699H30.0994C31.0938 18.2699 31.8395 18.0852 32.3366 17.7159C32.8338 17.3395 33.0824 16.7855 33.0824 16.054C33.0824 15.5426 32.9652 15.1094 32.7308 14.7543C32.4964 14.3991 32.1626 14.1293 31.7294 13.9446C31.3033 13.7599 30.7884 13.6676 30.1847 13.6676H27.3295V18.2699ZM27.3295 10.0028H29.7585C30.277 10.0028 30.7351 9.92116 31.1328 9.75781C31.5305 9.59446 31.8395 9.36009 32.0597 9.05469C32.2869 8.74219 32.4006 8.36222 32.4006 7.91477C32.4006 7.24006 32.1591 6.72514 31.6761 6.37003C31.1932 6.00781 30.5824 5.8267 29.8438 5.8267H27.3295V10.0028ZM40.9987 5.95455V1.18182H59.9618V5.95455H53.3993V23H47.5612V5.95455H40.9987Z" fill="#304E47"/>
<rect y="1.36841" width="16.44" height="5.19159" rx="2.5958" fill="#AFC4BF"/>
<rect y="9.15582" width="16.44" height="6.05686" rx="3.02843" fill="#AFC4BF"/>
<rect y="17.8084" width="16.44" height="5.19159" rx="2.5958" fill="#AFC4BF"/>
</svg>
