<svg width="119" height="20" viewBox="0 0 119 20" fill="none" xmlns="http://www.w3.org/2000/svg">
<path d="M6.84612 4.30069C7.37783 3.45531 8.62249 3.45531 9.1542 4.30069L10.4401 6.34519C10.6272 6.64263 10.9244 6.85608 11.2684 6.94005L13.6327 7.51722C14.6104 7.75587 14.995 8.92604 14.346 9.68716L12.7763 11.5279C12.548 11.7957 12.4345 12.1411 12.46 12.4904L12.6353 14.8916C12.7078 15.8845 11.7009 16.6077 10.768 16.2327L8.51205 15.3259C8.18384 15.1939 7.81648 15.1939 7.48827 15.3259L5.23228 16.2327C4.29945 16.6077 3.2925 15.8845 3.365 14.8916L3.54034 12.4904C3.56585 12.1411 3.45233 11.7957 3.22398 11.5279L1.65436 9.68716C1.00533 8.92604 1.38995 7.75587 2.3676 7.51722L4.73195 6.94005C5.07593 6.85608 5.37312 6.64263 5.5602 6.34519L6.84612 4.30069Z" fill="#FFED91"/>
<path d="M24.8461 4.30069C25.3778 3.45531 26.6225 3.45531 27.1542 4.30069L28.4401 6.34519C28.6272 6.64263 28.9244 6.85608 29.2684 6.94005L31.6327 7.51722C32.6104 7.75587 32.995 8.92604 32.346 9.68716L30.7763 11.5279C30.548 11.7957 30.4345 12.1411 30.46 12.4904L30.6353 14.8916C30.7078 15.8845 29.7009 16.6077 28.768 16.2327L26.512 15.3259C26.1838 15.1939 25.8165 15.1939 25.4883 15.3259L23.2323 16.2327C22.2994 16.6077 21.2925 15.8845 21.365 14.8916L21.5403 12.4904C21.5658 12.1411 21.4523 11.7957 21.224 11.5279L19.6544 9.68716C19.0053 8.92604 19.39 7.75587 20.3676 7.51722L22.732 6.94005C23.0759 6.85608 23.3731 6.64263 23.5602 6.34519L24.8461 4.30069Z" fill="#FFED91"/>
<path d="M42.8461 4.30069C43.3778 3.45531 44.6225 3.45531 45.1542 4.30069L46.4401 6.34519C46.6272 6.64263 46.9244 6.85608 47.2684 6.94005L49.6327 7.51722C50.6104 7.75587 50.995 8.92604 50.346 9.68716L48.7763 11.5279C48.548 11.7957 48.4345 12.1411 48.46 12.4904L48.6353 14.8916C48.7078 15.8845 47.7009 16.6077 46.768 16.2327L44.512 15.3259C44.1838 15.1939 43.8165 15.1939 43.4883 15.3259L41.2323 16.2327C40.2994 16.6077 39.2925 15.8845 39.365 14.8916L39.5403 12.4904C39.5658 12.1411 39.4523 11.7957 39.224 11.5279L37.6544 9.68716C37.0053 8.92604 37.39 7.75587 38.3676 7.51722L40.732 6.94005C41.0759 6.85608 41.3731 6.64263 41.5602 6.34519L42.8461 4.30069Z" fill="#FFED91"/>
<path d="M60.8461 4.30069C61.3778 3.45531 62.6225 3.45531 63.1542 4.30069L64.4401 6.34519C64.6272 6.64263 64.9244 6.85608 65.2684 6.94005L67.6327 7.51722C68.6104 7.75587 68.995 8.92604 68.346 9.68716L66.7763 11.5279C66.548 11.7957 66.4345 12.1411 66.46 12.4904L66.6353 14.8916C66.7078 15.8845 65.7009 16.6077 64.768 16.2327L62.512 15.3259C62.1838 15.1939 61.8165 15.1939 61.4883 15.3259L59.2323 16.2327C58.2994 16.6077 57.2925 15.8845 57.365 14.8916L57.5403 12.4904C57.5658 12.1411 57.4523 11.7957 57.224 11.5279L55.6544 9.68716C55.0053 8.92604 55.39 7.75587 56.3676 7.51722L58.732 6.94005C59.0759 6.85608 59.3731 6.64263 59.5602 6.34519L60.8461 4.30069Z" fill="#FFED91"/>
<path d="M78.8461 4.30069C79.3778 3.45531 80.6225 3.45531 81.1542 4.30069L82.4401 6.34519C82.6272 6.64263 82.9244 6.85608 83.2684 6.94005L85.6327 7.51722C86.6104 7.75587 86.995 8.92604 86.346 9.68716L84.7763 11.5279C84.548 11.7957 84.4345 12.1411 84.46 12.4904L84.6353 14.8916C84.7078 15.8845 83.7009 16.6077 82.768 16.2327L80.512 15.3259C80.1838 15.1939 79.8165 15.1939 79.4883 15.3259L77.2323 16.2327C76.2994 16.6077 75.2925 15.8845 75.365 14.8916L75.5403 12.4904C75.5658 12.1411 75.4523 11.7957 75.224 11.5279L73.6544 9.68716C73.0053 8.92604 73.39 7.75587 74.3676 7.51722L76.732 6.94005C77.0759 6.85608 77.3731 6.64263 77.5602 6.34519L78.8461 4.30069Z" fill="#FFED91"/>
<path d="M95.4915 9.90909C95.4915 8.65625 95.6539 7.5045 95.9787 6.45383C96.3068 5.39986 96.7741 4.4304 97.3807 3.54545H98.4148C98.1761 3.87358 97.9524 4.27794 97.7436 4.75852C97.5381 5.2358 97.3575 5.76113 97.2017 6.33452C97.0459 6.90459 96.9233 7.49455 96.8338 8.1044C96.7476 8.71425 96.7045 9.31581 96.7045 9.90909C96.7045 10.6979 96.7808 11.4983 96.9332 12.3104C97.0857 13.1224 97.2912 13.8764 97.5497 14.5724C97.8082 15.2685 98.0966 15.8352 98.4148 16.2727H97.3807C96.7741 15.3878 96.3068 14.42 95.9787 13.3693C95.6539 12.3153 95.4915 11.1619 95.4915 9.90909ZM99.8876 7.94034C99.8876 7.31061 100.025 6.75047 100.3 6.25994C100.579 5.76941 100.958 5.38329 101.439 5.10156C101.923 4.81984 102.473 4.67898 103.089 4.67898C103.712 4.67898 104.266 4.82481 104.75 5.11648C105.234 5.40483 105.613 5.80256 105.888 6.30966C106.163 6.81345 106.298 7.39015 106.291 8.03977C106.284 8.35795 106.236 8.68774 106.147 9.02912C106.057 9.3705 105.907 9.75 105.694 10.1676C105.482 10.5852 105.191 11.0691 104.819 11.6193L102.532 15H101.18L103.865 11.0824C103.746 11.1222 103.621 11.1553 103.492 11.1818C103.366 11.2083 103.238 11.2216 103.109 11.2216C102.493 11.2216 101.941 11.0791 101.454 10.794C100.97 10.509 100.587 10.1196 100.305 9.62571C100.027 9.13187 99.8876 8.57008 99.8876 7.94034ZM101.061 7.94034C101.061 8.37121 101.147 8.75071 101.319 9.07884C101.492 9.40696 101.73 9.66383 102.035 9.84943C102.34 10.035 102.692 10.1278 103.089 10.1278C103.487 10.1278 103.838 10.0367 104.143 9.8544C104.448 9.6688 104.687 9.41359 104.859 9.08878C105.032 8.76065 105.118 8.38447 105.118 7.96023C105.118 7.52936 105.032 7.1482 104.859 6.81676C104.687 6.48532 104.448 6.22514 104.143 6.03622C103.838 5.8473 103.487 5.75284 103.089 5.75284C102.692 5.75284 102.34 5.8473 102.035 6.03622C101.73 6.22183 101.492 6.48035 101.319 6.81179C101.147 7.13991 101.061 7.5161 101.061 7.94034ZM111.427 4.81818V15H110.194V6.60795H110.114C110.068 6.70076 109.948 6.80682 109.756 6.92614C109.564 7.04214 109.315 7.14489 109.01 7.23438C108.706 7.32055 108.358 7.36364 107.966 7.36364V6.32955C108.361 6.32955 108.702 6.25829 108.991 6.11577C109.279 5.97325 109.519 5.80587 109.711 5.61364C109.907 5.4214 110.055 5.2474 110.154 5.09162C110.257 4.93584 110.316 4.8447 110.333 4.81818H111.427ZM116.871 9.90909C116.871 11.1619 116.706 12.3153 116.378 13.3693C116.054 14.42 115.588 15.3878 114.981 16.2727H113.947C114.186 15.9446 114.408 15.5402 114.613 15.0597C114.822 14.5824 115.005 14.0587 115.16 13.4886C115.316 12.9152 115.437 12.3236 115.523 11.7138C115.613 11.1006 115.657 10.4991 115.657 9.90909C115.657 9.12026 115.581 8.31984 115.429 7.50781C115.276 6.69579 115.071 5.94176 114.812 5.24574C114.554 4.54972 114.265 3.98295 113.947 3.54545H114.981C115.588 4.4304 116.054 5.39986 116.378 6.45383C116.706 7.5045 116.871 8.65625 116.871 9.90909Z" fill="#1D2739"/>
</svg>
